<svg width="1920" height="1080" viewBox="0 0 1920 1080" xmlns="http://www.w3.org/2000/svg"><rect width="1920" height="1080" fill="#f1eefb"/><path d="M1920,1080C1600.6666666666667,1089,276.3333333333333,1095.8333333333333,0,1080C-276.3333333333333,1064.1666666666667,172.5,1021.1666666666666,262,985C351.5,948.8333333333334,445,858,537,863C629,868,721,989.1666666666666,814,1015C907,1040.8333333333333,1003.3333333333334,1051.3333333333333,1095,1018C1186.6666666666667,984.6666666666666,1274.5,835.5,1364,815C1453.5,794.5,1540,859.8333333333334,1632,895C1724,930.1666666666666,1868,995.1666666666666,1916,1026C1964,1056.8333333333333,2239.3333333333335,1071,1920,1080C1600.6666666666667,1089,276.3333333333333,1095.8333333333333,0,1080" fill="#ffffff"/></svg>