<?xml version="1.0" standalone="no"?>
<svg xmlns:xlink="http://www.w3.org/1999/xlink" id="wave" style="transform:rotate(0deg); transition: 0.3s" viewBox="0 0 1440 130" version="1.1" xmlns="http://www.w3.org/2000/svg"><defs><linearGradient id="sw-gradient-0" x1="0" x2="0" y1="1" y2="0"><stop stop-color="rgba(240, 235, 250, 1)" offset="0%"/><stop stop-color="rgba(240, 235, 250, 1)" offset="100%"/></linearGradient></defs><path style="transform:translate(0, 0px); opacity:1" fill="url(#sw-gradient-0)" d="M0,78L40,65C80,52,160,26,240,17.3C320,9,400,17,480,34.7C560,52,640,78,720,86.7C800,95,880,87,960,82.3C1040,78,1120,78,1200,65C1280,52,1360,26,1440,21.7C1520,17,1600,35,1680,34.7C1760,35,1840,17,1920,23.8C2000,30,2080,61,2160,62.8C2240,65,2320,39,2400,43.3C2480,48,2560,82,2640,95.3C2720,108,2800,100,2880,84.5C2960,69,3040,48,3120,34.7C3200,22,3280,17,3360,26C3440,35,3520,56,3600,67.2C3680,78,3760,78,3840,65C3920,52,4000,26,4080,32.5C4160,39,4240,78,4320,88.8C4400,100,4480,82,4560,65C4640,48,4720,30,4800,30.3C4880,30,4960,48,5040,65C5120,82,5200,100,5280,93.2C5360,87,5440,56,5520,36.8C5600,17,5680,9,5720,4.3L5760,0L5760,130L5720,130C5680,130,5600,130,5520,130C5440,130,5360,130,5280,130C5200,130,5120,130,5040,130C4960,130,4880,130,4800,130C4720,130,4640,130,4560,130C4480,130,4400,130,4320,130C4240,130,4160,130,4080,130C4000,130,3920,130,3840,130C3760,130,3680,130,3600,130C3520,130,3440,130,3360,130C3280,130,3200,130,3120,130C3040,130,2960,130,2880,130C2800,130,2720,130,2640,130C2560,130,2480,130,2400,130C2320,130,2240,130,2160,130C2080,130,2000,130,1920,130C1840,130,1760,130,1680,130C1600,130,1520,130,1440,130C1360,130,1280,130,1200,130C1120,130,1040,130,960,130C880,130,800,130,720,130C640,130,560,130,480,130C400,130,320,130,240,130C160,130,80,130,40,130L0,130Z"/></svg>